# xmcd
#
# Track frame offsets:
#	150
#	15152
#	32366
#	46047
#	63904
#	79826
#	95364
#	109241
#	123707
#	139441
#	153843
#	168037
#	181403
#	195506
#	207618
#	222103
#	237367
#	249640
#	266602
#
# Disc length: 3735 seconds
#
# Revision: 0
# Processed by: cddbd v1.5.1PL0 Copyright (c) Steve Scherf et al.
# Submitted via: dBpowerAMP V4.0
#
DISCID=fd0e9513
DTITLE=Andrzej i Jerzy Rybinscy - Ballady
DYEAR=1900
DGENRE=Ballad
TTITLE0=NIE LICZE GODZIN NI LAT
TTITLE1=OD JUTRA JUZ
TTITLE2=ZYCIE Z KLOCKOW LEGO
TTITLE3=WOLNY PAWEL
TTITLE4=JESTEM NIETUTEJSZY
TTITLE5=PYTANIA DO KSIEZYCA
TTITLE6=MOGLAS MALGOS
TTITLE7=TAK MNIE ZOSTAWIC
TTITLE8=POCIESZANKA
TTITLE9=TO NIE BYLEM JA
TTITLE10=ZIMA TUZ
TTITLE11=DESZCZ W OBCYM MIESCIE
TTITLE12=JUZ ZAPOMNIALAM
TTITLE13=W HOTELU JAK W HOTELU
TTITLE14=ZAPOMNIJ MNIE, ZAPOMNIJ JUZ
TTITLE15=BEATRYCZE JEST
TTITLE16=DZIEN JAK ZE SNU
TTITLE17=RUDY WRZESIEN
TTITLE18=WIZYTA U PRZYJACIELA
EXTD=
EXTT0=
EXTT1=
EXTT2=
EXTT3=
EXTT4=
EXTT5=
EXTT6=
EXTT7=
EXTT8=
EXTT9=
EXTT10=
EXTT11=
EXTT12=
EXTT13=
EXTT14=
EXTT15=
EXTT16=
EXTT17=
EXTT18=
PLAYORDER=
